Hanif_Deep_5_0_grf.mot
version=1
nRows=21
nColumns=19
inDegrees=yes
endheader
time	right_ground_force_vx	right_ground_force_vy	right_ground_force_vz	right_ground_force_px	right_ground_force_py	right_ground_force_pz	right_ground_torque_x	right_ground_torque_y	right_ground_torque_z	left_ground_force_vx	left_ground_force_vy	left_ground_force_vz	left_ground_force_px	left_ground_force_py	left_ground_force_pz	left_ground_torque_x	left_ground_torque_y	left_ground_torque_z
2.120000	-7.157640	242.008000	45.826000	0.232119	0.000000	-1.412960	-22.596100	0.551037	8.282150	-6.607410	238.021000	-45.780800	0.237334	0.000000	-0.986403	20.011300	-3.492040	9.992780
2.125000	-5.956290	240.599000	46.767800	0.233007	0.000000	-1.411770	-22.737700	0.530961	8.453790	-6.361310	237.278000	-46.128500	0.236493	0.000000	-0.985766	19.789500	-3.416650	9.752920
2.130000	-5.377350	240.220000	47.876100	0.231964	0.000000	-1.412450	-22.530900	0.552860	8.193770	-6.164160	234.741000	-46.644100	0.237031	0.000000	-0.986208	19.675800	-3.223510	9.778320
2.135000	-4.886410	241.140000	48.513700	0.232102	0.000000	-1.413480	-22.362200	0.580588	8.262190	-6.333750	234.352000	-47.726300	0.237117	0.000000	-0.986472	19.712600	-3.281120	9.835090
2.140000	-3.975910	241.288000	49.152000	0.232160	0.000000	-1.413220	-22.426500	0.433256	8.245180	-5.005970	233.315000	-48.863500	0.236779	0.000000	-0.985822	19.438100	-3.119000	9.697590
2.145000	-3.309030	239.843000	49.625000	0.232135	0.000000	-1.411730	-22.640100	0.344269	8.173030	-5.359940	230.472000	-48.570500	0.236326	0.000000	-0.985921	19.231600	-2.981960	9.466150
2.150000	-2.268640	241.836000	50.013400	0.233259	0.000000	-1.414500	-22.149800	0.330694	8.498500	-4.871670	231.137000	-48.145100	0.236040	0.000000	-0.985593	19.195500	-2.850780	9.369150
2.155000	-2.097710	239.070000	50.858100	0.232921	0.000000	-1.413230	-22.196600	0.228382	8.316470	-4.870100	228.337000	-48.633000	0.236420	0.000000	-0.985506	18.945700	-2.816850	9.378900
2.160000	-1.484840	238.891000	51.478400	0.231999	0.000000	-1.412520	-22.344200	0.340379	8.102410	-5.455540	226.388000	-49.164600	0.236383	0.000000	-0.985585	18.815900	-2.732960	9.316380
2.165000	-1.031250	236.852000	51.506300	0.232439	0.000000	-1.412480	-22.158900	0.295990	8.131930	-5.172440	225.318000	-49.535500	0.236108	0.000000	-0.984992	18.585800	-2.645320	9.203930
2.170000	-0.288580	236.194000	51.590200	0.232399	0.000000	-1.412520	-22.082300	0.263042	8.081000	-5.699650	223.956000	-49.028000	0.235842	0.000000	-0.985327	18.560500	-2.599800	9.083710
2.175000	-0.766797	231.729000	51.149700	0.232824	0.000000	-1.410630	-22.106700	0.264931	8.051420	-5.745740	221.366000	-49.273900	0.235722	0.000000	-0.985621	18.413200	-2.529130	8.968060
2.180000	-0.304451	230.036000	50.595700	0.232340	0.000000	-1.412270	-21.564400	0.198083	7.848980	-5.333780	218.717000	-49.152400	0.236809	0.000000	-0.985629	18.187400	-2.467320	9.110890
2.185000	0.045646	227.412000	50.583200	0.232362	0.000000	-1.411300	-21.535300	0.234154	7.774630	-5.787490	218.548000	-49.108500	0.235326	0.000000	-0.985141	18.072100	-2.334330	8.741530
2.190000	-0.188353	225.810000	50.945600	0.231798	0.000000	-1.412650	-21.080900	0.153920	7.584480	-6.337660	214.777000	-49.259000	0.235624	0.000000	-0.984632	17.663500	-2.161200	8.668050
2.195000	0.064307	225.758000	51.183200	0.232346	0.000000	-1.412380	-21.134900	0.075807	7.693450	-5.685070	213.068000	-49.803500	0.234969	0.000000	-0.984402	17.458400	-2.080210	8.452350
2.200000	-0.076581	226.658000	50.566200	0.232537	0.000000	-1.413060	-21.065500	0.038883	7.752000	-5.713490	211.766000	-49.599400	0.234370	0.000000	-0.983832	17.231000	-2.044090	8.264630
2.205000	-0.101958	223.419000	51.138300	0.231663	0.000000	-1.412980	-20.783300	0.204592	7.493750	-5.841790	208.668000	-49.460300	0.235297	0.000000	-0.984612	17.146600	-1.950940	8.354680
2.210000	0.360971	221.731000	51.569000	0.231445	0.000000	-1.413280	-20.556700	0.086055	7.361770	-6.141250	207.569000	-49.262700	0.234616	0.000000	-0.984220	16.981300	-1.934380	8.167310
2.215000	-0.029801	219.819000	51.146400	0.231206	0.000000	-1.412720	-20.505700	0.078075	7.249760	-5.900660	206.985000	-49.348300	0.234919	0.000000	-0.985542	17.198900	-1.790200	8.181460
2.220000	-0.016200	218.143000	51.164200	0.230776	0.000000	-1.414440	-19.973600	0.077020	7.101290	-5.958670	206.256000	-49.155700	0.234499	0.000000	-0.984015	16.821900	-1.696980	8.039310
